<svg width="164" height="58" viewBox="0 0 164 58" fill="none" xmlns="http://www.w3.org/2000/svg">
<path d="M0 0H164V36C164 48.1503 154.15 58 142 58H22C9.84973 58 0 48.1503 0 36V0Z" fill="#4B6350"/>
<path d="M47.1777 43H45.9473V38.5088H40.5332V43H39.3027V33.1357H40.5332V37.4014H45.9473V33.1357H47.1777V43ZM49.6318 45.6592C49.4176 45.6592 49.2467 45.6455 49.1191 45.6182V44.6201C49.2285 44.6429 49.3835 44.6543 49.584 44.6543C49.9167 44.6543 50.1833 44.5654 50.3838 44.3877C50.5843 44.2145 50.7529 43.9206 50.8896 43.5059L51.0537 43.0068L48.4287 35.8906H49.7002L51.6689 41.8105H51.6895L53.6582 35.8906H54.9092L52.1133 43.499C51.8079 44.3285 51.4775 44.8958 51.1221 45.2012C50.7712 45.5065 50.2744 45.6592 49.6318 45.6592ZM61.9912 39.2539L65.2041 43H63.6797L60.8086 39.582H60.7539V43H59.5781V39.582H59.5303L56.6592 43H55.1553L58.3477 39.2744L55.2305 35.8906H56.6934L59.5303 39.0352H59.5781V35.8906H60.7539V39.0352H60.8086L63.6455 35.8906H65.0947L61.9912 39.2539ZM68.8613 36.7998C68.3099 36.7998 67.8519 36.9912 67.4873 37.374C67.1273 37.7523 66.929 38.2399 66.8926 38.8369H70.7549C70.7412 38.2354 70.5612 37.7454 70.2148 37.3672C69.8685 36.9889 69.4173 36.7998 68.8613 36.7998ZM70.7275 40.9629H71.8965C71.7917 41.5918 71.4635 42.109 70.9121 42.5146C70.3652 42.9202 69.7067 43.123 68.9365 43.123C67.9202 43.123 67.1204 42.7949 66.5371 42.1387C65.9538 41.4824 65.6621 40.5938 65.6621 39.4727C65.6621 38.3607 65.9538 37.4652 66.5371 36.7861C67.125 36.1071 67.9066 35.7676 68.8818 35.7676C69.8389 35.7676 70.5954 36.0889 71.1514 36.7314C71.7074 37.374 71.9854 38.2354 71.9854 39.3154V39.7666H66.8857V39.835C66.8857 40.5186 67.0726 41.0654 67.4463 41.4756C67.82 41.8857 68.3258 42.0908 68.9639 42.0908C69.4105 42.0908 69.791 41.9883 70.1055 41.7832C70.4199 41.5781 70.6273 41.3047 70.7275 40.9629ZM77.9873 43V39.8008H74.4805V43H73.3047V35.8906H74.4805V38.8232H77.9873V35.8906H79.1631V43H77.9873ZM86.0811 43.123C85.2972 43.123 84.6478 42.9453 84.1328 42.5898C83.6178 42.2298 83.3307 41.7513 83.2715 41.1543H84.4746C84.543 41.4642 84.7161 41.7057 84.9941 41.8789C85.2767 42.0521 85.639 42.1387 86.0811 42.1387C86.5869 42.1387 86.9811 42.0316 87.2637 41.8174C87.5462 41.5986 87.6875 41.3115 87.6875 40.9561C87.6875 40.5596 87.5553 40.2679 87.291 40.0811C87.0267 39.8896 86.6234 39.7939 86.0811 39.7939H85.0146V38.8232H86.0811C86.9925 38.8232 87.4482 38.4769 87.4482 37.7842C87.4482 37.4743 87.3343 37.2259 87.1064 37.0391C86.8831 36.8522 86.5505 36.7588 86.1084 36.7588C85.6891 36.7588 85.3428 36.8431 85.0693 37.0117C84.7959 37.1803 84.6341 37.4059 84.584 37.6885H83.4287C83.5062 37.1006 83.7842 36.6335 84.2627 36.2871C84.7412 35.9408 85.3564 35.7676 86.1084 35.7676C86.9014 35.7676 87.5166 35.943 87.9541 36.2939C88.3916 36.6403 88.6104 37.1051 88.6104 37.6885C88.6104 38.0531 88.501 38.3789 88.2822 38.666C88.068 38.9531 87.7855 39.1377 87.4346 39.2197V39.2744C87.8949 39.3747 88.2458 39.5684 88.4873 39.8555C88.7334 40.138 88.8564 40.4867 88.8564 40.9014C88.8564 41.5667 88.6012 42.1045 88.0908 42.5146C87.585 42.9202 86.915 43.123 86.0811 43.123ZM93.0947 36.8545H91.3926V38.8438H92.917C93.8011 38.8438 94.2432 38.5065 94.2432 37.832C94.2432 37.5176 94.1452 37.276 93.9492 37.1074C93.7533 36.9388 93.4684 36.8545 93.0947 36.8545ZM93.0127 39.8008H91.3926V42.0361H93.2246C93.653 42.0361 93.9811 41.9427 94.209 41.7559C94.4368 41.5645 94.5508 41.2887 94.5508 40.9287C94.5508 40.1768 94.0381 39.8008 93.0127 39.8008ZM90.2168 43V35.8906H93.2588C93.9242 35.8906 94.4482 36.0524 94.8311 36.376C95.2139 36.6995 95.4053 37.1439 95.4053 37.709C95.4053 38.069 95.2913 38.3971 95.0635 38.6934C94.8402 38.9896 94.5645 39.1719 94.2363 39.2402V39.2949C94.6829 39.3587 95.0407 39.541 95.3096 39.8418C95.583 40.1426 95.7197 40.514 95.7197 40.9561C95.7197 41.585 95.501 42.084 95.0635 42.4531C94.6305 42.8177 94.0358 43 93.2793 43H90.2168ZM100.033 43.123C99.0397 43.123 98.2422 42.7926 97.6406 42.1318C97.0391 41.4665 96.7383 40.571 96.7383 39.4453C96.7383 38.3197 97.0391 37.4264 97.6406 36.7656C98.2422 36.1003 99.0397 35.7676 100.033 35.7676C101.022 35.7676 101.817 36.1003 102.419 36.7656C103.021 37.4264 103.321 38.3197 103.321 39.4453C103.321 40.5664 103.021 41.4596 102.419 42.125C101.817 42.7904 101.022 43.123 100.033 43.123ZM98.5088 41.3799C98.887 41.8447 99.3952 42.0771 100.033 42.0771C100.671 42.0771 101.177 41.847 101.551 41.3867C101.924 40.9219 102.111 40.2747 102.111 39.4453C102.111 38.6159 101.924 37.971 101.551 37.5107C101.177 37.0459 100.671 36.8135 100.033 36.8135C99.3952 36.8135 98.887 37.0459 98.5088 37.5107C98.1351 37.9756 97.9482 38.6204 97.9482 39.4453C97.9482 40.2702 98.1351 40.915 98.5088 41.3799ZM109.323 43V39.8008H105.816V43H104.641V35.8906H105.816V38.8232H109.323V35.8906H110.499V43H109.323ZM115.127 43.123C114.133 43.123 113.336 42.7926 112.734 42.1318C112.133 41.4665 111.832 40.571 111.832 39.4453C111.832 38.3197 112.133 37.4264 112.734 36.7656C113.336 36.1003 114.133 35.7676 115.127 35.7676C116.116 35.7676 116.911 36.1003 117.513 36.7656C118.114 37.4264 118.415 38.3197 118.415 39.4453C118.415 40.5664 118.114 41.4596 117.513 42.125C116.911 42.7904 116.116 43.123 115.127 43.123ZM113.603 41.3799C113.981 41.8447 114.489 42.0771 115.127 42.0771C115.765 42.0771 116.271 41.847 116.645 41.3867C117.018 40.9219 117.205 40.2747 117.205 39.4453C117.205 38.6159 117.018 37.971 116.645 37.5107C116.271 37.0459 115.765 36.8135 115.127 36.8135C114.489 36.8135 113.981 37.0459 113.603 37.5107C113.229 37.9756 113.042 38.6204 113.042 39.4453C113.042 40.2702 113.229 40.915 113.603 41.3799ZM122.147 39.2539L125.565 43H124.034L120.965 39.582H120.91V43H119.734V35.8906H120.91V39.0352H120.965L124 35.8906H125.47L122.147 39.2539Z" fill="white"/>
</svg>
