<svg width="162" height="50" viewBox="0 0 162 50" fill="none" xmlns="http://www.w3.org/2000/svg">
<path d="M50 25C50 29.9445 48.5338 34.778 45.7867 38.8893C43.0397 43.0005 39.1352 46.2048 34.5671 48.097C29.9989 49.9892 24.9723 50.4843 20.1227 49.5196C15.2732 48.555 10.8186 46.174 7.32233 42.6777C3.82602 39.1814 1.445 34.7268 0.480368 29.8773C-0.484263 25.0277 0.0108209 20.0011 1.90301 15.4329C3.7952 10.8648 6.99952 6.96029 11.1107 4.21326C15.222 1.46622 20.0555 -5.8963e-08 25 0V25H50Z" fill="#A1B748"/>
<path d="M44 25C44 20.6042 42.4758 16.3445 39.6872 12.9465C36.8986 9.54857 33.018 7.22265 28.7067 6.36508C24.3954 5.50751 19.9202 6.17135 16.0435 8.2435C12.1668 10.3156 9.12847 13.6679 7.44629 17.729C5.76411 21.7902 5.54211 26.3089 6.81813 30.5154C8.09415 34.7219 10.7892 38.3558 14.4442 40.7979C18.0991 43.2401 22.4877 44.3394 26.8623 43.9085C31.2369 43.4777 35.3268 41.5433 38.435 38.435L25 25H44Z" fill="#4F4F4F"/>
<path d="M50 25C50 29.9445 48.5338 34.778 45.7867 38.8893C43.0397 43.0005 39.1352 46.2048 34.5671 48.097C29.9989 49.9892 24.9723 50.4843 20.1227 49.5196C15.2732 48.555 10.8186 46.174 7.32233 42.6777C3.82602 39.1814 1.445 34.7268 0.480368 29.8773C-0.484263 25.0277 0.0108209 20.0011 1.90301 15.4329C3.7952 10.8648 6.99952 6.96029 11.1107 4.21326C15.222 1.46622 20.0555 -5.8963e-08 25 0V25H50Z" fill="url(#paint0_linear_302_2)"/>
<path d="M80.7207 35L78.7871 28.8477H69.875L67.9414 35H62.4922L71.2988 9.63477H77.5391L86.3633 35H80.7207ZM74.2695 14.4863L71.0176 24.875H77.6445L74.3926 14.4863H74.2695ZM110.41 24.3477C110.41 27.8047 109.414 30.5176 107.422 32.4863C105.441 34.4551 102.688 35.4395 99.1602 35.4395C95.3633 35.4395 92.375 34.2676 90.1953 31.9238C88.0273 29.5801 86.9434 26.3516 86.9434 22.2383C86.9434 18.1836 88.0215 14.9961 90.1777 12.6758C92.3457 10.3555 95.2988 9.19531 99.0371 9.19531C101.99 9.19531 104.492 9.99219 106.543 11.5859C108.594 13.1797 109.807 15.2598 110.182 17.8262H104.855C104.469 16.502 103.76 15.4648 102.729 14.7148C101.709 13.9648 100.484 13.5898 99.0547 13.5898C96.957 13.5898 95.3164 14.3457 94.1328 15.8574C92.9492 17.3691 92.3574 19.4727 92.3574 22.168C92.3574 24.9102 92.9727 27.0723 94.2031 28.6543C95.4453 30.2363 97.127 31.0273 99.248 31.0273C100.982 31.0273 102.395 30.541 103.484 29.5684C104.586 28.5957 105.166 27.3242 105.225 25.7539L105.242 25.3496H99.7227V21.4824H110.41V24.3477ZM119.234 13.7832V21.8691H123.805C125.141 21.8691 126.178 21.5117 126.916 20.7969C127.666 20.082 128.041 19.0918 128.041 17.8262C128.041 16.5957 127.654 15.6172 126.881 14.8906C126.107 14.1523 125.064 13.7832 123.752 13.7832H119.234ZM119.234 25.7188V35H113.926V9.63477H124.314C127.209 9.63477 129.459 10.3555 131.064 11.7969C132.682 13.2266 133.49 15.2012 133.49 17.7207C133.49 19.373 133.08 20.8496 132.26 22.1504C131.451 23.4395 130.326 24.3652 128.885 24.9277L134.229 35H128.217L123.488 25.7188H119.234ZM139.484 12.7285C141.688 10.373 144.67 9.19531 148.432 9.19531C152.193 9.19531 155.17 10.373 157.361 12.7285C159.564 15.084 160.666 18.2832 160.666 22.3262C160.666 26.3574 159.564 29.5508 157.361 31.9062C155.158 34.2617 152.182 35.4395 148.432 35.4395C144.67 35.4395 141.688 34.2617 139.484 31.9062C137.293 29.5508 136.197 26.3574 136.197 22.3262C136.197 18.2832 137.293 15.084 139.484 12.7285ZM153.389 15.9805C152.158 14.4102 150.506 13.625 148.432 13.625C146.357 13.625 144.699 14.4102 143.457 15.9805C142.227 17.5508 141.611 19.666 141.611 22.3262C141.611 24.9746 142.227 27.084 143.457 28.6543C144.688 30.2129 146.346 30.9922 148.432 30.9922C150.506 30.9922 152.158 30.2129 153.389 28.6543C154.619 27.084 155.234 24.9746 155.234 22.3262C155.234 19.666 154.619 17.5508 153.389 15.9805Z" fill="#4F4F4F"/>
<path d="M65.0762 47.0879C64.7116 47.0879 64.3861 47.0049 64.0996 46.8389C63.8164 46.6729 63.5918 46.4401 63.4258 46.1406H63.4062V47H62.5957V39.9541H63.4453V42.7715H63.4648C63.6243 42.4785 63.8457 42.249 64.1289 42.083C64.4154 41.917 64.736 41.834 65.0908 41.834C65.7321 41.834 66.2497 42.0732 66.6436 42.5518C67.0374 43.0303 67.2344 43.6667 67.2344 44.4609C67.2344 45.2585 67.0374 45.8965 66.6436 46.375C66.2497 46.8503 65.7272 47.0879 65.0762 47.0879ZM64.9102 42.5811C64.4772 42.5811 64.124 42.7552 63.8506 43.1035C63.5771 43.4486 63.4404 43.901 63.4404 44.4609C63.4404 45.0241 63.5771 45.4782 63.8506 45.8232C64.124 46.1683 64.4772 46.3408 64.9102 46.3408C65.3594 46.3408 65.7142 46.1732 65.9746 45.8379C66.235 45.4993 66.3652 45.0404 66.3652 44.4609C66.3652 43.8848 66.235 43.4274 65.9746 43.0889C65.7142 42.7503 65.3594 42.5811 64.9102 42.5811ZM75.1031 47.0879C74.3935 47.0879 73.8238 46.8519 73.3941 46.3799C72.9645 45.9046 72.7496 45.265 72.7496 44.4609C72.7496 43.6569 72.9645 43.0189 73.3941 42.5469C73.8238 42.0716 74.3935 41.834 75.1031 41.834C75.8095 41.834 76.3775 42.0716 76.8072 42.5469C77.2369 43.0189 77.4518 43.6569 77.4518 44.4609C77.4518 45.2617 77.2369 45.8997 76.8072 46.375C76.3775 46.8503 75.8095 47.0879 75.1031 47.0879ZM74.0143 45.8428C74.2844 46.1748 74.6474 46.3408 75.1031 46.3408C75.5589 46.3408 75.9202 46.1764 76.1871 45.8477C76.454 45.5156 76.5875 45.0534 76.5875 44.4609C76.5875 43.8685 76.454 43.4079 76.1871 43.0791C75.9202 42.7471 75.5589 42.5811 75.1031 42.5811C74.6474 42.5811 74.2844 42.7471 74.0143 43.0791C73.7473 43.4111 73.6139 43.8717 73.6139 44.4609C73.6139 45.0501 73.7473 45.5107 74.0143 45.8428ZM83.4846 40.6963H84.3342V41.9219H85.3205V42.6201H84.3342V45.6377C84.3342 45.8688 84.3846 46.0397 84.4855 46.1504C84.5865 46.2578 84.746 46.3115 84.9641 46.3115C85.1008 46.3115 85.218 46.3034 85.3156 46.2871V47C85.2049 47.026 85.0259 47.0391 84.7785 47.0391C84.313 47.0391 83.981 46.9349 83.7824 46.7266C83.5839 46.5182 83.4846 46.1699 83.4846 45.6816V42.6201H82.7277V41.9219H83.4846V40.6963Z" fill="url(#paint1_linear_302_2)"/>
<defs>
<linearGradient id="paint0_linear_302_2" x1="25" y1="0" x2="25" y2="50" gradientUnits="userSpaceOnUse">
<stop stop-color="#48B760"/>
<stop offset="1" stop-color="#6BB748" stop-opacity="0.63"/>
</linearGradient>
<linearGradient id="paint1_linear_302_2" x1="62" y1="37" x2="87.2982" y2="41.2226" gradientUnits="userSpaceOnUse">
<stop stop-color="#48B760"/>
<stop offset="1" stop-color="#6BB748"/>
</linearGradient>
</defs>
</svg>
