<svg width="162" height="50" viewBox="0 0 162 50" fill="none" xmlns="http://www.w3.org/2000/svg">
<path d="M50 25C50 29.9445 48.5338 34.778 45.7867 38.8893C43.0397 43.0005 39.1352 46.2048 34.5671 48.097C29.9989 49.9892 24.9723 50.4843 20.1227 49.5196C15.2732 48.555 10.8186 46.174 7.32233 42.6777C3.82602 39.1814 1.445 34.7268 0.480368 29.8773C-0.484263 25.0277 0.0108209 20.0011 1.90301 15.4329C3.7952 10.8648 6.99952 6.96029 11.1107 4.21326C15.222 1.46622 20.0555 -5.8963e-08 25 0V25H50Z" fill="#A1B748"/>
<path d="M44 25C44 20.6042 42.4758 16.3445 39.6872 12.9465C36.8986 9.54857 33.018 7.22265 28.7067 6.36508C24.3954 5.50751 19.9202 6.17135 16.0435 8.2435C12.1668 10.3156 9.12847 13.6679 7.44629 17.729C5.76411 21.7902 5.54211 26.3089 6.81813 30.5154C8.09415 34.7219 10.7892 38.3558 14.4442 40.7979C18.0991 43.2401 22.4877 44.3394 26.8623 43.9085C31.2369 43.4777 35.3268 41.5433 38.435 38.435L25 25H44Z" fill="#F2F2F2"/>
<path d="M50 25C50 29.9445 48.5338 34.778 45.7867 38.8893C43.0397 43.0005 39.1352 46.2048 34.5671 48.097C29.9989 49.9892 24.9723 50.4843 20.1227 49.5196C15.2732 48.555 10.8186 46.174 7.32233 42.6777C3.82602 39.1814 1.445 34.7268 0.480368 29.8773C-0.484263 25.0277 0.0108209 20.0011 1.90301 15.4329C3.7952 10.8648 6.99952 6.96029 11.1107 4.21326C15.222 1.46622 20.0555 -5.8963e-08 25 0V25H50Z" fill="url(#paint0_linear_34_1434)"/>
<path d="M80.7207 38L78.7871 31.8477H69.875L67.9414 38H62.4922L71.2988 12.6348H77.5391L86.3633 38H80.7207ZM74.2695 17.4863L71.0176 27.875H77.6445L74.3926 17.4863H74.2695ZM110.41 27.3477C110.41 30.8047 109.414 33.5176 107.422 35.4863C105.441 37.4551 102.688 38.4395 99.1602 38.4395C95.3633 38.4395 92.375 37.2676 90.1953 34.9238C88.0273 32.5801 86.9434 29.3516 86.9434 25.2383C86.9434 21.1836 88.0215 17.9961 90.1777 15.6758C92.3457 13.3555 95.2988 12.1953 99.0371 12.1953C101.99 12.1953 104.492 12.9922 106.543 14.5859C108.594 16.1797 109.807 18.2598 110.182 20.8262H104.855C104.469 19.502 103.76 18.4648 102.729 17.7148C101.709 16.9648 100.484 16.5898 99.0547 16.5898C96.957 16.5898 95.3164 17.3457 94.1328 18.8574C92.9492 20.3691 92.3574 22.4727 92.3574 25.168C92.3574 27.9102 92.9727 30.0723 94.2031 31.6543C95.4453 33.2363 97.127 34.0273 99.248 34.0273C100.982 34.0273 102.395 33.541 103.484 32.5684C104.586 31.5957 105.166 30.3242 105.225 28.7539L105.242 28.3496H99.7227V24.4824H110.41V27.3477ZM119.234 16.7832V24.8691H123.805C125.141 24.8691 126.178 24.5117 126.916 23.7969C127.666 23.082 128.041 22.0918 128.041 20.8262C128.041 19.5957 127.654 18.6172 126.881 17.8906C126.107 17.1523 125.064 16.7832 123.752 16.7832H119.234ZM119.234 28.7188V38H113.926V12.6348H124.314C127.209 12.6348 129.459 13.3555 131.064 14.7969C132.682 16.2266 133.49 18.2012 133.49 20.7207C133.49 22.373 133.08 23.8496 132.26 25.1504C131.451 26.4395 130.326 27.3652 128.885 27.9277L134.229 38H128.217L123.488 28.7188H119.234ZM139.484 15.7285C141.688 13.373 144.67 12.1953 148.432 12.1953C152.193 12.1953 155.17 13.373 157.361 15.7285C159.564 18.084 160.666 21.2832 160.666 25.3262C160.666 29.3574 159.564 32.5508 157.361 34.9062C155.158 37.2617 152.182 38.4395 148.432 38.4395C144.67 38.4395 141.688 37.2617 139.484 34.9062C137.293 32.5508 136.197 29.3574 136.197 25.3262C136.197 21.2832 137.293 18.084 139.484 15.7285ZM153.389 18.9805C152.158 17.4102 150.506 16.625 148.432 16.625C146.357 16.625 144.699 17.4102 143.457 18.9805C142.227 20.5508 141.611 22.666 141.611 25.3262C141.611 27.9746 142.227 30.084 143.457 31.6543C144.688 33.2129 146.346 33.9922 148.432 33.9922C150.506 33.9922 152.158 33.2129 153.389 31.6543C154.619 30.084 155.234 27.9746 155.234 25.3262C155.234 22.666 154.619 20.5508 153.389 18.9805Z" fill="#F2F2F2"/>
<defs>
<linearGradient id="paint0_linear_34_1434" x1="25" y1="0" x2="25" y2="50" gradientUnits="userSpaceOnUse">
<stop stop-color="#48B760"/>
<stop offset="1" stop-color="#6BB748" stop-opacity="0.63"/>
</linearGradient>
</defs>
</svg>
