<svg width="124" height="124" viewBox="0 0 124 124" fill="none" xmlns="http://www.w3.org/2000/svg">
<path d="M14.9999 123.646L32.9214 105.64C33.6565 104.905 33.1315 103.651 32.093 103.651H30.6637C29.6895 103.651 29.1411 102.524 29.7479 101.76L39.2511 89.7754C39.8578 89.011 39.3153 87.8849 38.3352 87.8849H33.5573C32.5948 87.8849 32.0464 86.788 32.6239 86.0178L44.764 69.8671C45.3416 69.0969 44.7932 68 43.8306 68H24.6315C24.1881 68 23.7798 68.2509 23.5873 68.6477L14.2007 87.6399C13.8157 88.416 14.3815 89.3262 15.2449 89.3262H19.5736C20.437 89.3262 21.0029 90.2364 20.6179 91.0124L14.2007 104.001C13.8157 104.777 14.3815 105.687 15.2449 105.687H19.3228C20.1862 105.687 20.7462 106.586 20.3729 107.361L13.1273 122.316C12.5497 123.501 14.0723 124.58 14.9999 123.646Z" fill="#828282"/>
<path d="M43.9946 123.217L83.6845 83.3461C85.3125 81.7182 84.1497 78.9404 81.8498 78.9404H78.6845C76.527 78.9404 75.3124 76.4468 76.6562 74.7544L97.7026 48.2169C99.0462 46.5244 97.8448 44.0309 95.6741 44.0309H85.0929C82.9611 44.0309 81.7466 41.6019 83.0257 39.8965L109.912 4.13437C111.191 2.42894 109.976 0 107.845 0H65.3253C64.3433 0 63.4389 0.555556 63.0126 1.43411L42.2245 43.4884C41.3718 45.2067 42.625 47.2222 44.5372 47.2222H54.1238C56.0359 47.2222 57.2891 49.2377 56.4364 50.9561L42.2245 79.7158C41.3718 81.4342 42.625 83.4496 44.5372 83.4496H53.5682C55.4803 83.4496 56.7205 85.4393 55.8938 87.1575L39.8473 120.271C38.5682 122.894 41.9403 125.284 43.9946 123.217Z" fill="url(#paint0_linear_34_343)"/>
<defs>
<linearGradient id="paint0_linear_34_343" x1="39.5654" y1="0" x2="116.175" y2="3.65408" gradientUnits="userSpaceOnUse">
<stop stop-color="#48B760"/>
<stop offset="1" stop-color="#6BB748"/>
</linearGradient>
</defs>
</svg>
