<svg width="28" height="28" viewBox="0 0 28 28" fill="none" xmlns="http://www.w3.org/2000/svg">
<path fill-rule="evenodd" clip-rule="evenodd" d="M7 5C5.89543 5 5 5.89543 5 7V11C5 12.1046 5.89543 13 7 13H11C12.1046 13 13 12.1046 13 11V7C13 5.89543 12.1046 5 11 5H7ZM7 15C5.89543 15 5 15.8954 5 17V21C5 22.1046 5.89543 23 7 23H11C12.1046 23 13 22.1046 13 21V17C13 15.8954 12.1046 15 11 15H7ZM15 7C15 5.89543 15.8954 5 17 5H21C22.1046 5 23 5.89543 23 7V11C23 12.1046 22.1046 13 21 13H17C15.8954 13 15 12.1046 15 11V7ZM17 15C15.8954 15 15 15.8954 15 17V21C15 22.1046 15.8954 23 17 23H21C22.1046 23 23 22.1046 23 21V17C23 15.8954 22.1046 15 21 15H17Z" fill="url(#paint0_linear_303_144)"/>
<defs>
<linearGradient id="paint0_linear_303_144" x1="5" y1="5" x2="24.3673" y2="6.61634" gradientUnits="userSpaceOnUse">
<stop stop-color="#48B760"/>
<stop offset="1" stop-color="#6BB748"/>
</linearGradient>
</defs>
</svg>
