<svg width="100" height="110" viewBox="0 0 100 110" fill="none" xmlns="http://www.w3.org/2000/svg">
<path d="M36.7109 64.2344V44.2656H49.0859C52.9766 44.2656 56.0469 43.3281 58.2969 41.4531C60.5938 39.5781 61.7422 37.0234 61.7422 33.7891C61.7422 30.6016 60.5938 28.0938 58.2969 26.2656C56 24.3906 52.8125 23.4531 48.7344 23.4531C44.75 23.4531 41.5156 24.5781 39.0312 26.8281C36.5469 29.0312 35.3047 31.9141 35.3047 35.4766H8.44531C8.49219 25.3047 12.3125 17.1484 19.9062 11.0078C27.5 4.82031 37.5312 1.72656 50 1.72656C62 1.72656 71.5156 4.25781 78.5469 9.32031C85.625 14.3359 89.1641 21.1328 89.1641 29.7109C89.1641 35.7109 87.1953 40.8203 83.2578 45.0391C79.3203 49.2109 74.2344 51.8594 68 52.9844V53.5469C75.5469 54.3906 81.5469 56.9453 86 61.2109C90.4531 65.4297 92.6797 70.9609 92.6797 77.8047C92.6797 87.2734 88.6953 94.8203 80.7266 100.445C72.7578 106.023 62.0469 108.812 48.5938 108.812C36.3125 108.812 26.3516 105.742 18.7109 99.6016C11.1172 93.4141 7.0625 85.1406 6.54688 74.7812H34.9531C35.0469 78.1562 36.3594 80.8281 38.8906 82.7969C41.4219 84.7188 44.8672 85.6797 49.2266 85.6797C53.1641 85.6797 56.3281 84.6953 58.7188 82.7266C61.1562 80.7109 62.375 78.0625 62.375 74.7812C62.375 71.4531 61.1797 68.875 58.7891 67.0469C56.4453 65.1719 53.1641 64.2344 48.9453 64.2344H36.7109Z" fill="url(#paint0_linear_70_1013)"/>
<g style="mix-blend-mode:overlay" opacity="0.4">
<mask id="mask0_70_1013" style="mask-type:alpha" maskUnits="userSpaceOnUse" x="6" y="1" width="87" height="108">
<path d="M36.7109 64.2344V44.2656H49.0859C52.9766 44.2656 56.0469 43.3281 58.2969 41.4531C60.5938 39.5781 61.7422 37.0234 61.7422 33.7891C61.7422 30.6016 60.5938 28.0938 58.2969 26.2656C56 24.3906 52.8125 23.4531 48.7344 23.4531C44.75 23.4531 41.5156 24.5781 39.0312 26.8281C36.5469 29.0312 35.3047 31.9141 35.3047 35.4766H8.44531C8.49219 25.3047 12.3125 17.1484 19.9062 11.0078C27.5 4.82031 37.5312 1.72656 50 1.72656C62 1.72656 71.5156 4.25781 78.5469 9.32031C85.625 14.3359 89.1641 21.1328 89.1641 29.7109C89.1641 35.7109 87.1953 40.8203 83.2578 45.0391C79.3203 49.2109 74.2344 51.8594 68 52.9844V53.5469C75.5469 54.3906 81.5469 56.9453 86 61.2109C90.4531 65.4297 92.6797 70.9609 92.6797 77.8047C92.6797 87.2734 88.6953 94.8203 80.7266 100.445C72.7578 106.023 62.0469 108.812 48.5938 108.812C36.3125 108.812 26.3516 105.742 18.7109 99.6016C11.1172 93.4141 7.0625 85.1406 6.54688 74.7812H34.9531C35.0469 78.1562 36.3594 80.8281 38.8906 82.7969C41.4219 84.7188 44.8672 85.6797 49.2266 85.6797C53.1641 85.6797 56.3281 84.6953 58.7188 82.7266C61.1562 80.7109 62.375 78.0625 62.375 74.7812C62.375 71.4531 61.1797 68.875 58.7891 67.0469C56.4453 65.1719 53.1641 64.2344 48.9453 64.2344H36.7109Z" fill="url(#paint1_linear_70_1013)"/>
</mask>
<g mask="url(#mask0_70_1013)">
<rect width="2.39038" height="112.93" rx="1.19519" transform="matrix(0.967094 0.25442 -0.263283 0.964719 7.90991 0.723297)" fill="black"/>
<rect width="2.39038" height="112.93" rx="1.19519" transform="matrix(0.967094 0.25442 -0.263283 0.964719 22.7351 0.723297)" fill="black"/>
<rect width="2.39038" height="112.93" rx="1.19519" transform="matrix(0.967094 0.25442 -0.263283 0.964719 37.5608 0.723297)" fill="black"/>
<rect width="2.39038" height="112.93" rx="1.19519" transform="matrix(0.967094 0.25442 -0.263283 0.964719 52.3865 0.723297)" fill="black"/>
<rect width="2.39038" height="112.93" rx="1.19519" transform="matrix(0.967094 0.25442 -0.263283 0.964719 67.2117 0.723297)" fill="black"/>
<rect width="2.39038" height="112.93" rx="1.19519" transform="matrix(0.967094 0.25442 -0.263283 0.964719 82.0371 0.723297)" fill="black"/>
<rect width="2.39038" height="112.93" rx="1.19519" transform="matrix(0.967094 0.25442 -0.263283 0.964719 96.8623 0.723297)" fill="black"/>
<rect width="2.39038" height="112.93" rx="1.19519" transform="matrix(0.967094 0.25442 -0.263283 0.964719 111.688 0.723297)" fill="black"/>
</g>
</g>
<defs>
<linearGradient id="paint0_linear_70_1013" x1="0" y1="0" x2="107.726" y2="8.17312" gradientUnits="userSpaceOnUse">
<stop stop-color="#48B760"/>
<stop offset="1" stop-color="#6BB748"/>
</linearGradient>
<linearGradient id="paint1_linear_70_1013" x1="0" y1="0" x2="107.726" y2="8.17312" gradientUnits="userSpaceOnUse">
<stop stop-color="#48B760"/>
<stop offset="1" stop-color="#6BB748"/>
</linearGradient>
</defs>
</svg>
