<svg width="93" height="110" viewBox="0 0 93 110" fill="none" xmlns="http://www.w3.org/2000/svg">
<path d="M40.2422 106V30.0625H39.6797L14.7891 46.5156V21.5547L40.2422 4.53906H70.0547V106H40.2422Z" fill="url(#paint0_linear_102_2)"/>
<g style="mix-blend-mode:overlay" opacity="0.4">
<mask id="mask0_102_2" style="mask-type:alpha" maskUnits="userSpaceOnUse" x="14" y="4" width="57" height="102">
<path d="M40.2422 106V30.0625H39.6797L14.7891 46.5156V21.5547L40.2422 4.53906H70.0547V106H40.2422Z" fill="url(#paint1_linear_102_2)"/>
</mask>
<g mask="url(#mask0_102_2)">
<rect width="2.29103" height="108.236" rx="1.14552" transform="matrix(0.967094 0.25442 -0.263283 0.964719 23.7056 2)" fill="black"/>
<rect width="2.29103" height="108.236" rx="1.14552" transform="matrix(0.967094 0.25442 -0.263283 0.964719 37.9153 2)" fill="black"/>
<rect width="2.29103" height="108.236" rx="1.14552" transform="matrix(0.967094 0.25442 -0.263283 0.964719 52.1248 2)" fill="black"/>
<rect width="2.29103" height="108.236" rx="1.14552" transform="matrix(0.967094 0.25442 -0.263283 0.964719 66.3337 2)" fill="black"/>
<rect width="2.29103" height="108.236" rx="1.14552" transform="matrix(0.967094 0.25442 -0.263283 0.964719 80.543 2)" fill="black"/>
<rect width="2.29103" height="108.236" rx="1.14552" transform="matrix(0.967094 0.25442 -0.263283 0.964719 94.752 2)" fill="black"/>
</g>
</g>
<defs>
<linearGradient id="paint0_linear_102_2" x1="0" y1="0" x2="100.262" y2="7.0744" gradientUnits="userSpaceOnUse">
<stop stop-color="#48B760"/>
<stop offset="1" stop-color="#6BB748"/>
</linearGradient>
<linearGradient id="paint1_linear_102_2" x1="0" y1="0" x2="100.262" y2="7.0744" gradientUnits="userSpaceOnUse">
<stop stop-color="#48B760"/>
<stop offset="1" stop-color="#6BB748"/>
</linearGradient>
</defs>
</svg>
