<svg width="96" height="110" viewBox="0 0 96 110" fill="none" xmlns="http://www.w3.org/2000/svg">
<path d="M49.2192 108.812C37.1724 108.812 27.2817 105.719 19.5474 99.5312C11.8599 93.3437 7.96924 85.3984 7.87549 75.6953H34.6646C35.2739 78.8359 36.938 81.3906 39.6567 83.3594C42.4224 85.3281 45.6802 86.3125 49.4302 86.3125C53.6489 86.3125 57.0474 84.9765 59.6255 82.3047C62.2505 79.6328 63.563 76.1875 63.563 71.9687C63.563 67.5156 62.2739 63.9297 59.6958 61.2109C57.1177 58.4922 53.6958 57.1328 49.4302 57.1328C46.5708 57.1328 43.9224 57.789 41.4849 59.1015C39.0474 60.3672 37.0786 62.1719 35.5786 64.5156H9.49268L13.9927 4.53905H84.938V27.039H36.9146L35.3677 49.539H35.9302C37.8052 45.6953 40.6646 42.6719 44.5083 40.4687C48.3989 38.2656 53.0161 37.164 58.3599 37.164C67.9692 37.164 75.8911 40.375 82.1255 46.7969C88.3599 53.1719 91.4771 61.3281 91.4771 71.2656C91.4771 82.5625 87.6099 91.6562 79.8755 98.5469C72.1411 105.391 61.9224 108.812 49.2192 108.812Z" fill="url(#paint0_linear_70_1041)"/>
<g style="mix-blend-mode:overlay" opacity="0.4">
<mask id="mask0_70_1041" style="mask-type:alpha" maskUnits="userSpaceOnUse" x="7" y="4" width="85" height="105">
<path d="M49.2192 108.812C37.1724 108.812 27.2817 105.719 19.5474 99.5312C11.8599 93.3437 7.96924 85.3984 7.87549 75.6953H34.6646C35.2739 78.8359 36.938 81.3906 39.6567 83.3594C42.4224 85.3281 45.6802 86.3125 49.4302 86.3125C53.6489 86.3125 57.0474 84.9765 59.6255 82.3047C62.2505 79.6328 63.563 76.1875 63.563 71.9687C63.563 67.5156 62.2739 63.9297 59.6958 61.2109C57.1177 58.4922 53.6958 57.1328 49.4302 57.1328C46.5708 57.1328 43.9224 57.789 41.4849 59.1015C39.0474 60.3672 37.0786 62.1719 35.5786 64.5156H9.49268L13.9927 4.53905H84.938V27.039H36.9146L35.3677 49.539H35.9302C37.8052 45.6953 40.6646 42.6719 44.5083 40.4687C48.3989 38.2656 53.0161 37.164 58.3599 37.164C67.9692 37.164 75.8911 40.375 82.1255 46.7969C88.3599 53.1719 91.4771 61.3281 91.4771 71.2656C91.4771 82.5625 87.6099 91.6562 79.8755 98.5469C72.1411 105.391 61.9224 108.812 49.2192 108.812Z" fill="url(#paint1_linear_70_1041)"/>
</mask>
<g mask="url(#mask0_70_1041)">
<rect width="2.37831" height="112.359" rx="1.18915" transform="matrix(0.967094 0.25442 -0.263283 0.964719 10.1033 0.999985)" fill="black"/>
<rect width="2.37831" height="112.359" rx="1.18915" transform="matrix(0.967094 0.25442 -0.263283 0.964719 24.8535 0.999985)" fill="black"/>
<rect width="2.37831" height="112.359" rx="1.18915" transform="matrix(0.967094 0.25442 -0.263283 0.964719 39.6042 0.999985)" fill="black"/>
<rect width="2.37831" height="112.359" rx="1.18915" transform="matrix(0.967094 0.25442 -0.263283 0.964719 54.3552 0.999985)" fill="black"/>
<rect width="2.37831" height="112.359" rx="1.18915" transform="matrix(0.967094 0.25442 -0.263283 0.964719 69.1055 0.999985)" fill="black"/>
<rect width="2.37831" height="112.359" rx="1.18915" transform="matrix(0.967094 0.25442 -0.263283 0.964719 83.856 0.999985)" fill="black"/>
<rect width="2.37831" height="112.359" rx="1.18915" transform="matrix(0.967094 0.25442 -0.263283 0.964719 98.6064 0.999985)" fill="black"/>
<rect width="2.37831" height="112.359" rx="1.18915" transform="matrix(0.967094 0.25442 -0.263283 0.964719 113.357 0.999985)" fill="black"/>
</g>
</g>
<defs>
<linearGradient id="paint0_linear_70_1041" x1="0.000488281" y1="-1.52588e-05" x2="103.463" y2="7.53571" gradientUnits="userSpaceOnUse">
<stop stop-color="#48B760"/>
<stop offset="1" stop-color="#6BB748"/>
</linearGradient>
<linearGradient id="paint1_linear_70_1041" x1="0.000488281" y1="-1.52588e-05" x2="103.463" y2="7.53571" gradientUnits="userSpaceOnUse">
<stop stop-color="#48B760"/>
<stop offset="1" stop-color="#6BB748"/>
</linearGradient>
</defs>
</svg>
