<svg width="93" height="110" viewBox="0 0 93 110" fill="none" xmlns="http://www.w3.org/2000/svg">
<path d="M4.73438 36.3906C4.73438 25.9844 8.50781 17.6172 16.0547 11.2891C23.6016 4.91406 33.6328 1.72656 46.1484 1.72656C58.3359 1.72656 67.9922 4.5625 75.1172 10.2344C82.2891 15.8594 85.875 23.3125 85.875 32.5938C85.875 35.2188 85.4297 37.8906 84.5391 40.6094C83.6484 43.2812 82.6172 45.5781 81.4453 47.5C80.3203 49.4219 78.8438 51.4375 77.0156 53.5469C75.2344 55.6562 73.8047 57.2266 72.7266 58.2578C71.6484 59.2891 70.3359 60.4844 68.7891 61.8438L44.9531 82.9375V83.5H87.0703V106H6.49219V86.1719L47.2734 50.1016C50.7422 47.0078 53.25 44.1719 54.7969 41.5938C56.3906 38.9688 57.1875 36.2734 57.1875 33.5078C57.1875 30.6953 56.1094 28.375 53.9531 26.5469C51.7969 24.6719 48.8438 23.7344 45.0938 23.7344C41.2031 23.7344 38.0156 24.9063 35.5312 27.25C33.0938 29.5937 31.875 32.6172 31.875 36.3203V36.9531H4.73438V36.3906Z" fill="url(#paint0_linear_70_999)"/>
<g style="mix-blend-mode:overlay" opacity="0.4">
<mask id="mask0_70_999" style="mask-type:alpha" maskUnits="userSpaceOnUse" x="4" y="1" width="84" height="105">
<path d="M4.73438 36.3906C4.73438 25.9844 8.50781 17.6172 16.0547 11.2891C23.6016 4.91406 33.6328 1.72656 46.1484 1.72656C58.3359 1.72656 67.9922 4.5625 75.1172 10.2344C82.2891 15.8594 85.875 23.3125 85.875 32.5938C85.875 35.2188 85.4297 37.8906 84.5391 40.6094C83.6484 43.2812 82.6172 45.5781 81.4453 47.5C80.3203 49.4219 78.8438 51.4375 77.0156 53.5469C75.2344 55.6562 73.8047 57.2266 72.7266 58.2578C71.6484 59.2891 70.3359 60.4844 68.7891 61.8438L44.9531 82.9375V83.5H87.0703V106H6.49219V86.1719L47.2734 50.1016C50.7422 47.0078 53.25 44.1719 54.7969 41.5938C56.3906 38.9688 57.1875 36.2734 57.1875 33.5078C57.1875 30.6953 56.1094 28.375 53.9531 26.5469C51.7969 24.6719 48.8438 23.7344 45.0938 23.7344C41.2031 23.7344 38.0156 24.9063 35.5312 27.25C33.0938 29.5937 31.875 32.6172 31.875 36.3203V36.9531H4.73438V36.3906Z" fill="url(#paint1_linear_70_999)"/>
</mask>
<g mask="url(#mask0_70_999)">
<rect width="2.70716" height="127.895" rx="1.35358" transform="matrix(0.967094 0.25442 -0.263283 0.964719 2.85059 -7.53586)" fill="black"/>
<rect width="2.70716" height="127.895" rx="1.35358" transform="matrix(0.967094 0.25442 -0.263283 0.964719 19.6404 -7.53586)" fill="black"/>
<rect width="2.70716" height="127.895" rx="1.35358" transform="matrix(0.967094 0.25442 -0.263283 0.964719 36.4309 -7.53586)" fill="black"/>
<rect width="2.70716" height="127.895" rx="1.35358" transform="matrix(0.967094 0.25442 -0.263283 0.964719 53.2214 -7.53586)" fill="black"/>
<rect width="2.70716" height="127.895" rx="1.35358" transform="matrix(0.967094 0.25442 -0.263283 0.964719 70.0112 -7.53586)" fill="black"/>
<rect width="2.70716" height="127.895" rx="1.35358" transform="matrix(0.967094 0.25442 -0.263283 0.964719 86.8013 -7.53586)" fill="black"/>
<rect width="2.70716" height="127.895" rx="1.35358" transform="matrix(0.967094 0.25442 -0.263283 0.964719 103.591 -7.53586)" fill="black"/>
<rect width="2.70716" height="127.895" rx="1.35358" transform="matrix(0.967094 0.25442 -0.263283 0.964719 120.382 -7.53586)" fill="black"/>
</g>
</g>
<defs>
<linearGradient id="paint0_linear_70_999" x1="0" y1="0" x2="100.262" y2="7.0744" gradientUnits="userSpaceOnUse">
<stop stop-color="#48B760"/>
<stop offset="1" stop-color="#6BB748"/>
</linearGradient>
<linearGradient id="paint1_linear_70_999" x1="0" y1="0" x2="100.262" y2="7.0744" gradientUnits="userSpaceOnUse">
<stop stop-color="#48B760"/>
<stop offset="1" stop-color="#6BB748"/>
</linearGradient>
</defs>
</svg>
