<svg width="180" height="44" viewBox="0 0 180 44" fill="none" xmlns="http://www.w3.org/2000/svg">
<rect x="2.61816" y="-1" width="1" height="48" transform="rotate(15 2.61816 -1)" fill="black"/>
<rect x="8.8125" y="-1" width="1" height="48" transform="rotate(15 8.8125 -1)" fill="black"/>
<rect x="15.0073" y="-1" width="1" height="48" transform="rotate(15 15.0073 -1)" fill="black"/>
<rect x="21.2017" y="-1" width="1" height="48" transform="rotate(15 21.2017 -1)" fill="black"/>
<rect x="27.3965" y="-1" width="1" height="48" transform="rotate(15 27.3965 -1)" fill="black"/>
<rect x="33.5913" y="-1" width="1" height="48" transform="rotate(15 33.5913 -1)" fill="black"/>
<rect x="39.7856" y="-1" width="1" height="48" transform="rotate(15 39.7856 -1)" fill="black"/>
<rect x="45.9805" y="-1" width="1" height="48" transform="rotate(15 45.9805 -1)" fill="black"/>
<rect x="52.1753" y="-1" width="1" height="48" transform="rotate(15 52.1753 -1)" fill="black"/>
<rect x="58.3696" y="-1" width="1" height="48" transform="rotate(15 58.3696 -1)" fill="black"/>
<rect x="64.5645" y="-1" width="1" height="48" transform="rotate(15 64.5645 -1)" fill="black"/>
<rect x="70.7588" y="-1" width="1" height="48" transform="rotate(15 70.7588 -1)" fill="black"/>
<rect x="76.9536" y="-1" width="1" height="48" transform="rotate(15 76.9536 -1)" fill="black"/>
<rect x="83.1484" y="-1" width="1" height="48" transform="rotate(15 83.1484 -1)" fill="black"/>
<rect x="89.3428" y="-1" width="1" height="48" transform="rotate(15 89.3428 -1)" fill="black"/>
<rect x="95.5376" y="-1" width="1" height="48" transform="rotate(15 95.5376 -1)" fill="black"/>
<rect x="101.732" y="-1" width="1" height="48" transform="rotate(15 101.732 -1)" fill="black"/>
<rect x="107.927" y="-1" width="1" height="48" transform="rotate(15 107.927 -1)" fill="black"/>
<rect x="114.122" y="-1" width="1" height="48" transform="rotate(15 114.122 -1)" fill="black"/>
<rect x="120.316" y="-1" width="1" height="48" transform="rotate(15 120.316 -1)" fill="black"/>
<rect x="126.511" y="-1" width="1" height="48" transform="rotate(15 126.511 -1)" fill="black"/>
<rect x="132.706" y="-1" width="1" height="48" transform="rotate(15 132.706 -1)" fill="black"/>
<rect x="138.9" y="-1" width="1" height="48" transform="rotate(15 138.9 -1)" fill="black"/>
<rect x="145.095" y="-1" width="1" height="48" transform="rotate(15 145.095 -1)" fill="black"/>
<rect x="151.29" y="-1" width="1" height="48" transform="rotate(15 151.29 -1)" fill="black"/>
<rect x="157.484" y="-1" width="1" height="48" transform="rotate(15 157.484 -1)" fill="black"/>
<rect x="163.679" y="-1" width="1" height="48" transform="rotate(15 163.679 -1)" fill="black"/>
<rect x="169.873" y="-1" width="1" height="48" transform="rotate(15 169.873 -1)" fill="black"/>
<rect x="176.068" y="-1" width="1" height="48" transform="rotate(15 176.068 -1)" fill="black"/>
<rect x="182.263" y="-1" width="1" height="48" transform="rotate(15 182.263 -1)" fill="black"/>
<rect x="188.457" y="-1" width="1" height="48" transform="rotate(15 188.457 -1)" fill="black"/>
</svg>
