<svg width="124" height="124" viewBox="0 0 124 124" fill="none" xmlns="http://www.w3.org/2000/svg">
<path d="M114.558 25.2651C122.85 16.9758 123.354 4.40952 123.371 3.87878L123.499 0L119.619 0.12677C119.088 0.144745 106.516 0.648987 98.2241 8.93823C91.457 15.7025 89.8771 25.3162 89.5148 28.9111L84.9425 33.4758C85.11 32.3122 85.2074 31.1173 85.2074 29.8922C85.2074 18.1707 76.675 8.92783 76.3118 8.53995L73.6581 5.70749L71.0045 8.53995C70.6412 8.92783 62.1088 18.1707 62.1088 29.8922C62.1088 38.4615 66.6659 45.7015 69.2609 49.13L64.2525 54.1289C64.4067 53.0097 64.4966 51.8603 64.4966 50.6844C64.4966 38.9619 55.9633 29.7191 55.6 29.3312L52.9473 26.4987L50.2936 29.3312C49.9304 29.7191 41.397 38.9619 41.397 50.6844C41.397 59.1969 45.8955 66.3991 48.499 69.855L43.2844 75.0602C43.4367 73.9514 43.5237 72.8133 43.5237 71.6497C43.5237 59.9272 34.9904 50.6844 34.6271 50.2965L31.9735 47.464L29.3208 50.2965C28.9575 50.6844 20.4242 59.9272 20.4242 71.6497C20.4242 80.148 24.9084 87.3408 27.5129 90.8033L0.484375 117.785L5.6214 122.928L33.2166 95.3812C35.9894 97.4795 41.2627 100.861 47.7195 102.077C47.1149 99.3924 46.7942 96.6006 46.7942 93.7351C46.7942 88.7523 47.7611 83.9908 49.5141 79.6267C49.3154 79.6513 49.1177 79.6768 48.9209 79.7043L49.8802 78.7469C53.7306 69.821 60.9092 62.6547 69.8446 58.8194C69.8437 58.8194 69.8437 58.8194 69.8427 58.8194L74.8426 53.8281C75.8198 54.5546 77.0714 55.4108 78.5482 56.2726C80.5775 55.9359 82.6597 55.758 84.7827 55.758C90.7702 55.758 96.437 57.1515 101.479 59.6292C109.357 57.2849 114.899 52.1763 115.197 51.8972L118.03 49.2454L115.197 46.5927C114.81 46.2294 105.563 37.6999 93.8372 37.6999C92.807 37.6999 91.7976 37.769 90.8109 37.8891L94.754 33.9526C98.4804 33.5581 107.898 31.9214 114.558 25.2651Z" fill="url(#paint0_linear_34_330)"/>
<path d="M85.2073 87.8734C81.9737 87.8734 79.3428 90.5025 79.3428 93.7351C79.3428 96.9677 81.9737 99.5977 85.2073 99.5977C88.4409 99.5977 91.0718 96.9677 91.0718 93.7351C91.0718 90.5025 88.4409 87.8734 85.2073 87.8734Z" fill="#828282"/>
<path d="M84.7827 63.4711C68.0887 63.4711 54.5073 77.0478 54.5073 93.735C54.5073 110.423 68.0887 124 84.7827 124C101.477 124 115.058 110.423 115.058 93.735C115.058 77.0478 101.477 63.4711 84.7827 63.4711ZM99.5334 84.5537L96.7 87.3861C97.1721 88.2376 97.5514 89.1477 97.8267 90.1013H101.831V97.3688H97.8267C97.5514 98.3224 97.1721 99.2325 96.7 100.084L99.5334 102.916L94.3926 108.055L91.5592 105.223C90.7068 105.696 89.7967 106.074 88.8431 106.35V110.353H81.5727V106.35C80.6182 106.074 79.7081 105.696 78.8566 105.223L76.0223 108.055L70.8815 102.916L73.7158 100.084C73.2428 99.2325 72.8634 98.3224 72.5881 97.3688H68.5835V90.1013H72.5881C72.8634 89.1477 73.2428 88.2376 73.7158 87.3861L70.8815 84.5537L76.0223 79.4148L78.8566 82.2472C79.7081 81.7751 80.6182 81.3958 81.5727 81.1205V77.1168H88.8431V81.1205C89.7967 81.3958 90.7068 81.7751 91.5592 82.2472L94.3926 79.4148L99.5334 84.5537Z" fill="#828282"/>
<defs>
<linearGradient id="paint0_linear_34_330" x1="0.484375" y1="0" x2="132.842" y2="11.0539" gradientUnits="userSpaceOnUse">
<stop stop-color="#48B760"/>
<stop offset="1" stop-color="#6BB748"/>
</linearGradient>
</defs>
</svg>
