<svg width="124" height="124" viewBox="0 0 124 124" fill="none" xmlns="http://www.w3.org/2000/svg">
<path d="M29.0625 56.4297C13.0119 56.4297 0 69.4416 0 85.4922C0 101.543 13.0119 114.555 29.0625 114.555C45.1131 114.555 58.125 101.543 58.125 85.4922C58.125 69.4416 45.1131 56.4297 29.0625 56.4297ZM29.0625 96.3906C23.0532 96.3906 18.1641 91.5015 18.1641 85.4922C18.1641 79.4829 23.0532 74.5938 29.0625 74.5938C35.0718 74.5938 39.9609 79.4829 39.9609 85.4922C39.9609 91.5015 35.0718 96.3906 29.0625 96.3906Z" fill="#828282"/>
<path d="M29.0625 81.8594C27.0597 81.8594 25.4297 83.4894 25.4297 85.4922C25.4297 87.495 27.0597 89.125 29.0625 89.125C31.0653 89.125 32.6953 87.495 32.6953 85.4922C32.6953 83.4894 31.0653 81.8594 29.0625 81.8594Z" fill="#828282"/>
<path d="M94.9375 31C94.9375 28.9972 96.5675 27.3672 98.5703 27.3672V20.1016C92.561 20.1016 87.6719 24.9907 87.6719 31V41.8984H94.9375V31Z" fill="#828282"/>
<path d="M77.0422 78.2266C82.0742 69.5466 91.4684 63.6953 102.203 63.6953C107.493 63.6953 112.457 65.1163 116.734 67.5968V63.6953C116.734 55.6823 110.216 49.1641 102.203 49.1641H53.1319C46.2295 44.5757 37.9535 41.8984 29.0626 41.8984C18.9541 41.8984 9.10104 45.4376 1.31982 51.8641L5.94598 57.4666C12.4292 52.1129 20.639 49.1641 29.0626 49.1641C46.606 49.1641 61.2849 61.6651 64.6604 78.2266H77.0422Z" fill="url(#paint0_linear_34_335)"/>
<path d="M74.0602 85.4922H65.3906V96.3906H73.3677C73.2182 95.2005 73.1406 93.9877 73.1406 92.7578C73.1406 90.2498 73.4604 87.8157 74.0602 85.4922Z" fill="url(#paint1_linear_34_335)"/>
<path d="M102.203 70.9609C90.1647 70.9609 80.4062 80.7194 80.4062 92.7578C80.4062 104.796 90.1647 114.555 102.203 114.555C114.242 114.555 124 104.796 124 92.7578C124 80.7194 114.242 70.9609 102.203 70.9609ZM102.203 96.3906C100.197 96.3906 98.5703 94.7644 98.5703 92.7578C98.5703 90.7513 100.197 89.125 102.203 89.125C104.21 89.125 105.836 90.7513 105.836 92.7578C105.836 94.7644 104.21 96.3906 102.203 96.3906Z" fill="#828282"/>
<path d="M18.1641 35.8182C21.725 35.0358 25.3786 34.6328 29.0625 34.6328C38.3347 34.6328 47.3344 37.1379 55.2348 41.8984H69.3867L62.7114 16.4688H69.0234V9.20312H10.8984V16.4688H18.1641V35.8182Z" fill="url(#paint2_linear_34_335)"/>
<defs>
<linearGradient id="paint0_linear_34_335" x1="1.31982" y1="41.8984" x2="118.153" y2="72.8759" gradientUnits="userSpaceOnUse">
<stop stop-color="#48B760"/>
<stop offset="1" stop-color="#6BB748"/>
</linearGradient>
<linearGradient id="paint1_linear_34_335" x1="65.3906" y1="85.4922" x2="74.7425" y2="86.113" gradientUnits="userSpaceOnUse">
<stop stop-color="#48B760"/>
<stop offset="1" stop-color="#6BB748"/>
</linearGradient>
<linearGradient id="paint2_linear_34_335" x1="10.8984" y1="9.20312" x2="72.8863" y2="18.4576" gradientUnits="userSpaceOnUse">
<stop stop-color="#48B760"/>
<stop offset="1" stop-color="#6BB748"/>
</linearGradient>
</defs>
</svg>
