<svg width="200" height="48" viewBox="0 0 200 48" fill="none" xmlns="http://www.w3.org/2000/svg">
<rect width="200" height="48" rx="24" fill="url(#paint0_linear_34_388)"/>
<g style="mix-blend-mode:overlay" opacity="0.2">
<mask id="mask0_34_388" style="mask-type:alpha" maskUnits="userSpaceOnUse" x="0" y="0" width="200" height="48">
<rect width="200" height="48" rx="24" fill="url(#paint1_linear_34_388)"/>
</mask>
<g mask="url(#mask0_34_388)">
<rect width="1.10977" height="52.4292" rx="0.554885" transform="matrix(0.967094 0.25442 -0.263283 0.964719 2.90869 -1.09094)" fill="black"/>
<rect width="1.10977" height="52.4292" rx="0.554885" transform="matrix(0.967094 0.25442 -0.263283 0.964719 9.79175 -1.09094)" fill="black"/>
<rect width="1.10977" height="52.4292" rx="0.554885" transform="matrix(0.967094 0.25442 -0.263283 0.964719 16.6748 -1.09094)" fill="black"/>
<rect width="1.10977" height="52.4292" rx="0.554885" transform="matrix(0.967094 0.25442 -0.263283 0.964719 23.5576 -1.09094)" fill="black"/>
<rect width="1.10977" height="52.4292" rx="0.554885" transform="matrix(0.967094 0.25442 -0.263283 0.964719 30.4404 -1.09094)" fill="black"/>
<rect width="1.10977" height="52.4292" rx="0.554885" transform="matrix(0.967094 0.25442 -0.263283 0.964719 37.3235 -1.09094)" fill="black"/>
<rect width="1.10977" height="52.4292" rx="0.554885" transform="matrix(0.967094 0.25442 -0.263283 0.964719 44.2065 -1.09094)" fill="black"/>
<rect width="1.10977" height="52.4292" rx="0.554885" transform="matrix(0.967094 0.25442 -0.263283 0.964719 51.0894 -1.09094)" fill="black"/>
<rect width="1.10977" height="52.4292" rx="0.554885" transform="matrix(0.967094 0.25442 -0.263283 0.964719 57.9722 -1.09094)" fill="black"/>
<rect width="1.10977" height="52.4292" rx="0.554885" transform="matrix(0.967094 0.25442 -0.263283 0.964719 64.8552 -1.09094)" fill="black"/>
<rect width="1.10977" height="52.4292" rx="0.554885" transform="matrix(0.967094 0.25442 -0.263283 0.964719 71.7383 -1.09094)" fill="black"/>
<rect width="1.10977" height="52.4292" rx="0.554885" transform="matrix(0.967094 0.25442 -0.263283 0.964719 78.6211 -1.09094)" fill="black"/>
<rect width="1.10977" height="52.4292" rx="0.554885" transform="matrix(0.967094 0.25442 -0.263283 0.964719 85.5039 -1.09094)" fill="black"/>
<rect width="1.10977" height="52.4292" rx="0.554885" transform="matrix(0.967094 0.25442 -0.263283 0.964719 92.387 -1.09094)" fill="black"/>
<rect width="1.10977" height="52.4292" rx="0.554885" transform="matrix(0.967094 0.25442 -0.263283 0.964719 99.27 -1.09094)" fill="black"/>
<rect width="1.10977" height="52.4292" rx="0.554885" transform="matrix(0.967094 0.25442 -0.263283 0.964719 106.153 -1.09094)" fill="black"/>
<rect width="1.10977" height="52.4292" rx="0.554885" transform="matrix(0.967094 0.25442 -0.263283 0.964719 113.036 -1.09094)" fill="black"/>
<rect width="1.10977" height="52.4292" rx="0.554885" transform="matrix(0.967094 0.25442 -0.263283 0.964719 119.919 -1.09094)" fill="black"/>
<rect width="1.10977" height="52.4292" rx="0.554885" transform="matrix(0.967094 0.25442 -0.263283 0.964719 126.802 -1.09094)" fill="black"/>
<rect width="1.10977" height="52.4292" rx="0.554885" transform="matrix(0.967094 0.25442 -0.263283 0.964719 133.685 -1.09094)" fill="black"/>
<rect width="1.10977" height="52.4292" rx="0.554885" transform="matrix(0.967094 0.25442 -0.263283 0.964719 140.567 -1.09094)" fill="black"/>
<rect width="1.10977" height="52.4292" rx="0.554885" transform="matrix(0.967094 0.25442 -0.263283 0.964719 147.45 -1.09094)" fill="black"/>
<rect width="1.10977" height="52.4292" rx="0.554885" transform="matrix(0.967094 0.25442 -0.263283 0.964719 154.333 -1.09094)" fill="black"/>
<rect width="1.10977" height="52.4292" rx="0.554885" transform="matrix(0.967094 0.25442 -0.263283 0.964719 161.216 -1.09094)" fill="black"/>
<rect width="1.10977" height="52.4292" rx="0.554885" transform="matrix(0.967094 0.25442 -0.263283 0.964719 168.099 -1.09094)" fill="black"/>
<rect width="1.10977" height="52.4292" rx="0.554885" transform="matrix(0.967094 0.25442 -0.263283 0.964719 174.982 -1.09094)" fill="black"/>
<rect width="1.10977" height="52.4292" rx="0.554885" transform="matrix(0.967094 0.25442 -0.263283 0.964719 181.865 -1.09094)" fill="black"/>
<rect width="1.10977" height="52.4292" rx="0.554885" transform="matrix(0.967094 0.25442 -0.263283 0.964719 188.748 -1.09094)" fill="black"/>
<rect width="1.10977" height="52.4292" rx="0.554885" transform="matrix(0.967094 0.25442 -0.263283 0.964719 195.631 -1.09094)" fill="black"/>
<rect width="1.10977" height="52.4292" rx="0.554885" transform="matrix(0.967094 0.25442 -0.263283 0.964719 202.514 -1.09094)" fill="black"/>
<rect width="1.10977" height="52.4292" rx="0.554885" transform="matrix(0.967094 0.25442 -0.263283 0.964719 209.397 -1.09094)" fill="black"/>
</g>
</g>
<path d="M39.9052 29.4279C38.4241 29.4279 37.2551 28.9676 36.3984 28.047C35.5416 27.1219 35.1132 25.8549 35.1132 24.2462C35.1132 22.642 35.5416 21.3797 36.3984 20.4591C37.2597 19.534 38.4286 19.0714 39.9052 19.0714C41.1083 19.0714 42.1246 19.4246 42.954 20.131C43.7834 20.8328 44.2506 21.7351 44.3554 22.838H41.9218C41.817 22.323 41.5823 21.9152 41.2177 21.6144C40.8531 21.309 40.4156 21.1564 39.9052 21.1564C39.217 21.1564 38.6724 21.4321 38.2714 21.9835C37.8704 22.535 37.6698 23.2869 37.6698 24.2394C37.6698 25.2055 37.8704 25.9643 38.2714 26.5157C38.6724 27.0672 39.2193 27.3429 39.912 27.3429C40.427 27.3429 40.8622 27.1971 41.2177 26.9054C41.5777 26.6137 41.8147 26.2127 41.9286 25.7023H44.3691C44.2506 26.8234 43.7834 27.7257 42.9677 28.4093C42.1565 29.0883 41.1357 29.4279 39.9052 29.4279ZM46.7206 20.5206C47.6002 19.6046 48.7874 19.1466 50.2821 19.1466C51.7769 19.1466 52.9618 19.6046 53.8368 20.5206C54.7118 21.4366 55.1493 22.6808 55.1493 24.2531C55.1493 25.8253 54.7118 27.0695 53.8368 27.9855C52.9618 28.8969 51.7769 29.3527 50.2821 29.3527C48.7828 29.3527 47.5956 28.8969 46.7206 27.9855C45.8456 27.0695 45.4081 25.8253 45.4081 24.2531C45.4081 22.6808 45.8456 21.4366 46.7206 20.5206ZM51.9638 22.0177C51.5445 21.4617 50.984 21.1837 50.2821 21.1837C49.5803 21.1837 49.0175 21.4617 48.5937 22.0177C48.1744 22.5691 47.9648 23.3142 47.9648 24.2531C47.9648 25.1873 48.1744 25.9324 48.5937 26.4884C49.0129 27.0398 49.5758 27.3156 50.2821 27.3156C50.984 27.3156 51.5445 27.0398 51.9638 26.4884C52.3876 25.9324 52.5995 25.1873 52.5995 24.2531C52.5995 23.3142 52.3876 22.5691 51.9638 22.0177ZM58.9296 25.0802V23.2072H60.2216C60.6591 23.2072 61.01 23.1023 61.2743 22.8927C61.5432 22.6831 61.6777 22.4051 61.6777 22.0587C61.6777 21.7078 61.5478 21.4321 61.288 21.2316C61.0282 21.031 60.6705 20.9308 60.2148 20.9308C59.759 20.9308 59.3899 21.047 59.1073 21.2794C58.8248 21.5118 58.6767 21.8217 58.663 22.2091H56.3798C56.4026 21.243 56.7649 20.4751 57.4667 19.9054C58.1685 19.3357 59.1028 19.0509 60.2694 19.0509C61.3951 19.0509 62.302 19.2993 62.9902 19.796C63.6829 20.2882 64.0292 20.9376 64.0292 21.7443C64.0292 22.3048 63.856 22.7924 63.5097 23.2072C63.1679 23.6173 62.7167 23.8748 62.1562 23.9796V24.0343C62.8261 24.1072 63.3593 24.3601 63.7558 24.7931C64.1568 25.2215 64.3573 25.7638 64.3573 26.42C64.3573 27.3133 63.97 28.0424 63.1952 28.6075C62.425 29.1681 61.4293 29.4484 60.2079 29.4484C59.0367 29.4484 58.0842 29.159 57.3505 28.5802C56.6168 27.9969 56.2271 27.2221 56.1816 26.256H58.5741C58.5924 26.6297 58.7519 26.9259 59.0527 27.1447C59.3534 27.3634 59.7545 27.4728 60.2558 27.4728C60.7115 27.4728 61.0806 27.3588 61.3632 27.131C61.6457 26.8986 61.787 26.5978 61.787 26.2286C61.787 25.8686 61.648 25.5883 61.37 25.3878C61.092 25.1827 60.7092 25.0802 60.2216 25.0802H58.9296ZM68.8212 24.7794C68.7847 25.3582 68.7187 25.8344 68.623 26.2081C68.5318 26.5773 68.386 26.8758 68.1855 27.1036V27.1583H71.8153V21.3273H69.0468L68.8212 24.7794ZM67.1943 29.1818V31.13H64.9384V27.1583H65.6083C65.9273 26.9122 66.1484 26.6001 66.2714 26.2218C66.399 25.839 66.4856 25.2853 66.5312 24.5607L66.8525 19.3175H74.3173V27.1583H75.5478V31.13H73.2987V29.1818H67.1943ZM83.0536 29.1818L82.4316 27.0148H79.205L78.5761 29.1818H76.0194L79.3349 19.3175H82.4042L85.7196 29.1818H83.0536ZM80.7909 21.4093L79.6903 25.2101H81.9394L80.8456 21.4093H80.7909ZM90.5732 29.1818H88.0712V21.3409H85.3505V19.3175H93.2939V21.3409H90.5732V29.1818ZM94.4902 29.1818V19.3175H96.9989V22.4484H98.6464C99.7493 22.4484 100.64 22.756 101.319 23.3712C102.003 23.9865 102.345 24.7999 102.345 25.8116C102.345 26.8279 102.019 27.6437 101.367 28.2589C100.715 28.8741 99.8586 29.1818 98.7968 29.1818H94.4902ZM96.9989 27.2472H98.1337C98.6624 27.2472 99.0702 27.1241 99.3573 26.8781C99.649 26.632 99.7948 26.2742 99.7948 25.8048C99.7948 25.3309 99.6467 24.9708 99.3505 24.7247C99.0588 24.4741 98.6464 24.3488 98.1132 24.3488H96.9989V27.2472ZM108.736 25.0802V23.2072H110.028C110.466 23.2072 110.817 23.1023 111.081 22.8927C111.35 22.6831 111.484 22.4051 111.484 22.0587C111.484 21.7078 111.354 21.4321 111.095 21.2316C110.835 21.031 110.477 20.9308 110.021 20.9308C109.566 20.9308 109.197 21.047 108.914 21.2794C108.631 21.5118 108.483 21.8217 108.47 22.2091H106.186C106.209 21.243 106.572 20.4751 107.273 19.9054C107.975 19.3357 108.909 19.0509 110.076 19.0509C111.202 19.0509 112.109 19.2993 112.797 19.796C113.489 20.2882 113.836 20.9376 113.836 21.7443C113.836 22.3048 113.663 22.7924 113.316 23.2072C112.975 23.6173 112.523 23.8748 111.963 23.9796V24.0343C112.633 24.1072 113.166 24.3601 113.562 24.7931C113.963 25.2215 114.164 25.7638 114.164 26.42C114.164 27.3133 113.777 28.0424 113.002 28.6075C112.232 29.1681 111.236 29.4484 110.015 29.4484C108.843 29.4484 107.891 29.159 107.157 28.5802C106.423 27.9969 106.034 27.2221 105.988 26.256H108.381C108.399 26.6297 108.559 26.9259 108.859 27.1447C109.16 27.3634 109.561 27.4728 110.062 27.4728C110.518 27.4728 110.887 27.3588 111.17 27.131C111.452 26.8986 111.594 26.5978 111.594 26.2286C111.594 25.8686 111.455 25.5883 111.177 25.3878C110.899 25.1827 110.516 25.0802 110.028 25.0802H108.736ZM121.69 29.1818L121.068 27.0148H117.842L117.213 29.1818H114.656L117.972 19.3175H121.041L124.356 29.1818H121.69ZM119.428 21.4093L118.327 25.2101H120.576L119.482 21.4093H119.428ZM134.303 29.1818H131.801V21.3341H127.952V29.1818H125.443V19.3175H134.303V29.1818ZM135.93 19.3175H140.202C141.264 19.3175 142.121 19.6365 142.772 20.2745C143.429 20.908 143.757 21.7534 143.757 22.8107C143.757 23.8588 143.415 24.7019 142.731 25.34C142.048 25.9734 141.155 26.2902 140.052 26.2902H138.438V29.1818H135.93V19.3175ZM138.438 21.2384V24.4034H139.525C140.063 24.4034 140.48 24.2667 140.776 23.9933C141.073 23.7198 141.221 23.3279 141.221 22.8175C141.221 22.3071 141.073 21.9174 140.776 21.6486C140.485 21.3751 140.072 21.2384 139.539 21.2384H138.438ZM146.156 20.5206C147.036 19.6046 148.223 19.1466 149.718 19.1466C151.212 19.1466 152.397 19.6046 153.272 20.5206C154.147 21.4366 154.585 22.6808 154.585 24.2531C154.585 25.8253 154.147 27.0695 153.272 27.9855C152.397 28.8969 151.212 29.3527 149.718 29.3527C148.218 29.3527 147.031 28.8969 146.156 27.9855C145.281 27.0695 144.844 25.8253 144.844 24.2531C144.844 22.6808 145.281 21.4366 146.156 20.5206ZM151.399 22.0177C150.98 21.4617 150.42 21.1837 149.718 21.1837C149.016 21.1837 148.453 21.4617 148.029 22.0177C147.61 22.5691 147.4 23.3142 147.4 24.2531C147.4 25.1873 147.61 25.9324 148.029 26.4884C148.448 27.0398 149.011 27.3156 149.718 27.3156C150.42 27.3156 150.98 27.0398 151.399 26.4884C151.823 25.9324 152.035 25.1873 152.035 24.2531C152.035 23.3142 151.823 22.5691 151.399 22.0177ZM160.464 29.4279C158.983 29.4279 157.814 28.9676 156.957 28.047C156.1 27.1219 155.672 25.8549 155.672 24.2462C155.672 22.642 156.1 21.3797 156.957 20.4591C157.818 19.534 158.987 19.0714 160.464 19.0714C161.667 19.0714 162.683 19.4246 163.513 20.131C164.342 20.8328 164.809 21.7351 164.914 22.838H162.48C162.376 22.323 162.141 21.9152 161.776 21.6144C161.412 21.309 160.974 21.1564 160.464 21.1564C159.776 21.1564 159.231 21.4321 158.83 21.9835C158.429 22.535 158.228 23.2869 158.228 24.2394C158.228 25.2055 158.429 25.9643 158.83 26.5157C159.231 27.0672 159.778 27.3429 160.471 27.3429C160.986 27.3429 161.421 27.1971 161.776 26.9054C162.136 26.6137 162.373 26.2127 162.487 25.7023H164.928C164.809 26.8234 164.342 27.7257 163.526 28.4093C162.715 29.0883 161.694 29.4279 160.464 29.4279Z" fill="white"/>
<defs>
<linearGradient id="paint0_linear_34_388" x1="0" y1="0" x2="193.316" y2="67.2229" gradientUnits="userSpaceOnUse">
<stop stop-color="#48B760"/>
<stop offset="1" stop-color="#6BB748"/>
</linearGradient>
<linearGradient id="paint1_linear_34_388" x1="0" y1="0" x2="193.316" y2="67.2229" gradientUnits="userSpaceOnUse">
<stop stop-color="#48B760"/>
<stop offset="1" stop-color="#6BB748"/>
</linearGradient>
</defs>
</svg>
