<svg width="124" height="124" viewBox="0 0 124 124" fill="none" xmlns="http://www.w3.org/2000/svg">
<path d="M73.1406 94.9375C77.1533 94.9375 80.4062 91.6846 80.4062 87.6719C80.4062 83.6592 77.1533 80.4062 73.1406 80.4062C69.1279 80.4062 65.875 83.6592 65.875 87.6719C65.875 91.6846 69.1279 94.9375 73.1406 94.9375Z" fill="#828282"/>
<path d="M91.3047 94.9375C95.3174 94.9375 98.5703 91.6846 98.5703 87.6719C98.5703 83.6592 95.3174 80.4062 91.3047 80.4062C87.292 80.4062 84.0391 83.6592 84.0391 87.6719C84.0391 91.6846 87.292 94.9375 91.3047 94.9375Z" fill="#828282"/>
<path d="M109.469 94.9375C113.481 94.9375 116.734 91.6846 116.734 87.6719C116.734 83.6592 113.481 80.4062 109.469 80.4062C105.456 80.4062 102.203 83.6592 102.203 87.6719C102.203 91.6846 105.456 94.9375 109.469 94.9375Z" fill="#828282"/>
<path d="M82.2227 80.4062C86.2353 80.4062 89.4883 77.1533 89.4883 73.1406C89.4883 69.1279 86.2353 65.875 82.2227 65.875C78.21 65.875 74.957 69.1279 74.957 73.1406C74.957 77.1533 78.21 80.4062 82.2227 80.4062Z" fill="#828282"/>
<path d="M100.387 80.4062C104.399 80.4062 107.652 77.1533 107.652 73.1406C107.652 69.1279 104.399 65.875 100.387 65.875C96.374 65.875 93.1211 69.1279 93.1211 73.1406C93.1211 77.1533 96.374 80.4062 100.387 80.4062Z" fill="#828282"/>
<path d="M7.57466 72.5676C9.02972 87.9308 21.5273 100.116 36.8125 101.836V124H44.0781V87.3047C59.3633 85.5849 71.3765 73.3995 72.8316 58.0364C77.2099 56.6213 80.4062 52.5544 80.4062 47.7109C80.4062 41.7013 75.5175 36.8125 69.5078 36.8125C63.4982 36.8125 58.6094 41.7013 58.6094 47.7109C58.6094 52.3341 61.5139 56.2689 65.5846 57.8496C64.2746 69.2976 55.4227 78.3942 44.0781 80.0388V43.7107C55.3612 42.0747 64.1797 32.5846 65.5655 21.2236C69.9437 19.8088 73.1406 15.7419 73.1406 10.8984C73.1406 4.8888 68.2518 0 62.2422 0C56.2325 0 51.3438 4.8888 51.3438 10.8984C51.3438 15.5216 54.2483 19.4564 58.319 21.0371C57.1211 28.4921 51.4302 34.9464 44.0781 36.4449V0H36.8125V50.9761C29.4604 49.4777 23.7695 43.5078 22.5716 36.0528C26.6423 34.472 29.5469 30.5372 29.5469 25.9141C29.5469 19.9044 24.6581 15.0156 18.6484 15.0156C12.6388 15.0156 7.75 19.9044 7.75 25.9141C7.75 30.7576 10.9469 34.8244 15.3251 36.2395C16.7109 47.6005 25.5295 56.6062 36.8125 58.2422V94.5703C25.468 92.9257 16.1316 83.8288 14.8216 72.3811C18.8923 70.8001 21.7969 66.8653 21.7969 62.2422C21.7969 56.2325 16.9081 51.3438 10.8984 51.3438C4.8888 51.3438 0 56.2325 0 62.2422C0 67.0857 3.19639 71.1525 7.57466 72.5676Z" fill="url(#paint0_linear_34_322)"/>
<path d="M80.4062 124H102.203C114.241 124 124 114.241 124 102.203H58.6094C58.6094 114.241 68.3681 124 80.4062 124Z" fill="url(#paint1_linear_34_322)"/>
<defs>
<linearGradient id="paint0_linear_34_322" x1="0" y1="0" x2="86.8623" y2="4.70069" gradientUnits="userSpaceOnUse">
<stop stop-color="#48B760"/>
<stop offset="1" stop-color="#6BB748"/>
</linearGradient>
<linearGradient id="paint1_linear_34_322" x1="58.6094" y1="102.203" x2="125.278" y2="118.895" gradientUnits="userSpaceOnUse">
<stop stop-color="#48B760"/>
<stop offset="1" stop-color="#6BB748"/>
</linearGradient>
</defs>
</svg>
