<svg width="24" height="24" viewBox="0 0 24 24" fill="none" xmlns="http://www.w3.org/2000/svg">
<path fill-rule="evenodd" clip-rule="evenodd" d="M5.25 0C5.44891 0 5.63968 0.0790176 5.78033 0.21967C5.92098 0.360322 6 0.551088 6 0.75V1.5C6 1.69891 5.92098 1.88968 5.78033 2.03033C5.63968 2.17098 5.44891 2.25 5.25 2.25C5.05109 2.25 4.86032 2.17098 4.71967 2.03033C4.57902 1.88968 4.5 1.69891 4.5 1.5V0.75C4.5 0.551088 4.57902 0.360322 4.71967 0.21967C4.86032 0.0790176 5.05109 0 5.25 0V0ZM18.75 0C18.9489 0 19.1397 0.0790176 19.2803 0.21967C19.421 0.360322 19.5 0.551088 19.5 0.75V1.5C19.5 1.69891 19.421 1.88968 19.2803 2.03033C19.1397 2.17098 18.9489 2.25 18.75 2.25C18.5511 2.25 18.3603 2.17098 18.2197 2.03033C18.079 1.88968 18 1.69891 18 1.5V0.75C18 0.551088 18.079 0.360322 18.2197 0.21967C18.3603 0.0790176 18.5511 0 18.75 0V0Z" fill="url(#paint0_linear_70_303)"/>
<path d="M3 1.5C2.20435 1.5 1.44129 1.81607 0.87868 2.37868C0.316071 2.94129 0 3.70435 0 4.5L0 6H24V4.5C24 3.70435 23.6839 2.94129 23.1213 2.37868C22.5587 1.81607 21.7956 1.5 21 1.5H3ZM24 7.5H0V21C0 21.7956 0.316071 22.5587 0.87868 23.1213C1.44129 23.6839 2.20435 24 3 24H21C21.7956 24 22.5587 23.6839 23.1213 23.1213C23.6839 22.5587 24 21.7956 24 21V7.5Z" fill="url(#paint1_linear_70_303)"/>
<defs>
<linearGradient id="paint0_linear_70_303" x1="4.5" y1="0" x2="16.9102" y2="6.90476" gradientUnits="userSpaceOnUse">
<stop stop-color="#48B760"/>
<stop offset="1" stop-color="#6BB748"/>
</linearGradient>
<linearGradient id="paint1_linear_70_303" x1="0" y1="1.5" x2="25.7985" y2="3.7966" gradientUnits="userSpaceOnUse">
<stop stop-color="#48B760"/>
<stop offset="1" stop-color="#6BB748"/>
</linearGradient>
</defs>
</svg>
