<svg width="24" height="24" viewBox="0 0 24 24" fill="none" xmlns="http://www.w3.org/2000/svg">
<g clip-path="url(#clip0_34_206)">
<path d="M2 13.7508C2.27778 13.7508 2.47222 13.6397 2.58333 13.4176C2.69444 13.1955 2.69444 12.9733 2.58333 12.7512C2.47222 12.5291 2.27778 12.418 2 12.418C1.72222 12.418 1.52778 12.5291 1.41667 12.7512C1.30556 12.9733 1.30556 13.1955 1.41667 13.4176C1.52778 13.6397 1.72222 13.7508 2 13.7508ZM17.3438 13.1469C17.2743 13.0566 17.1406 12.8831 16.9427 12.6262C16.7448 12.3694 16.6007 12.182 16.5104 12.064C16.4201 11.9459 16.2882 11.7759 16.1146 11.5537C15.941 11.3316 15.7934 11.1476 15.6719 11.0019C15.5503 10.8561 15.4097 10.6929 15.25 10.5125C15.0903 10.332 14.934 10.1619 14.7812 10.0022L13.4792 11.46C12.9028 12.1125 12.1788 12.4319 11.3073 12.418C10.4358 12.4041 9.72222 12.064 9.16667 11.3975C8.77083 10.9186 8.57465 10.3702 8.57812 9.75233C8.5816 9.13451 8.78472 8.58958 9.1875 8.11753L11.0312 5.97252C10.8785 5.89616 10.7014 5.83889 10.5 5.80071C10.2986 5.76253 10.1337 5.7417 10.0052 5.73823C9.87674 5.73476 9.68056 5.73649 9.41667 5.74344C9.15278 5.75038 8.98264 5.75385 8.90625 5.75385C8.26736 5.75385 7.71875 5.98293 7.26042 6.44109L5.61458 8.0863H4V13.7508C4.03472 13.7508 4.10764 13.7491 4.21875 13.7456C4.32986 13.7421 4.40625 13.7421 4.44792 13.7456C4.48958 13.7491 4.55729 13.756 4.65104 13.7664C4.74479 13.7768 4.81597 13.7925 4.86458 13.8133C4.91319 13.8341 4.97396 13.8636 5.04688 13.9018C5.11979 13.94 5.18403 13.9868 5.23958 14.0424L8.33333 17.0829C9.13194 17.8534 9.92014 18.2387 10.6979 18.2387C11.2396 18.2387 11.6736 18.0756 12 17.7493C12.3958 17.8881 12.7865 17.8604 13.1719 17.666C13.5573 17.4716 13.809 17.1766 13.9271 16.7809C14.441 16.8226 14.8819 16.6698 15.25 16.3228C15.3889 16.1978 15.5139 16.0399 15.625 15.849C15.7361 15.6581 15.7847 15.4828 15.7708 15.3231C15.8403 15.3926 15.9896 15.4273 16.2188 15.4273C16.5174 15.4273 16.7847 15.3544 17.0208 15.2086C17.2569 15.0628 17.4288 14.8789 17.5365 14.6567C17.6441 14.4346 17.6858 14.1864 17.6615 13.9122C17.6372 13.638 17.5312 13.3829 17.3438 13.1469ZM19 13.7508H20V8.4195H19.0312L17.3958 6.54521C16.9375 6.01764 16.3507 5.75385 15.6354 5.75385H13.8958C13.2778 5.75385 12.7708 5.9864 12.375 6.4515L10.1979 8.98179C10.0035 9.21087 9.90625 9.47119 9.90625 9.76274C9.90625 10.0543 10 10.3146 10.1875 10.5437C10.4861 10.8977 10.8681 11.0782 11.3333 11.0852C11.7986 11.0921 12.184 10.922 12.4896 10.5749L14.5 8.30496C14.6736 8.1453 14.8594 8.07068 15.0573 8.08109C15.2552 8.0915 15.4184 8.18522 15.5469 8.36223C15.6753 8.53925 15.7049 8.73536 15.6354 8.95055C15.7465 9.08245 15.941 9.30111 16.2188 9.60655C16.4965 9.91199 16.7049 10.148 16.8438 10.3146C17.0451 10.5645 17.3316 10.9307 17.7031 11.4132C18.0747 11.8956 18.2986 12.1889 18.375 12.293C18.7361 12.7512 18.9444 13.2371 19 13.7508ZM22 13.7508C22.2778 13.7508 22.4722 13.6397 22.5833 13.4176C22.6944 13.1955 22.6944 12.9733 22.5833 12.7512C22.4722 12.5291 22.2778 12.418 22 12.418C21.7222 12.418 21.5278 12.5291 21.4167 12.7512C21.3056 12.9733 21.3056 13.1955 21.4167 13.4176C21.5278 13.6397 21.7222 13.7508 22 13.7508ZM24 7.75309V14.4172C24 14.5977 23.934 14.7539 23.8021 14.8858C23.6701 15.0177 23.5139 15.0836 23.3333 15.0836H18.8125C18.625 15.5349 18.3403 15.9045 17.9583 16.1926C17.5764 16.4807 17.1424 16.6594 16.6562 16.7289C16.4271 17.0621 16.1476 17.3449 15.8177 17.5775C15.4878 17.81 15.1319 17.968 14.75 18.0513C14.4583 18.4192 14.0955 18.7021 13.6615 18.8999C13.2274 19.0977 12.7812 19.1828 12.3229 19.155C11.9062 19.391 11.4688 19.5281 11.0104 19.5663C10.5521 19.6045 10.1094 19.5559 9.68229 19.4205C9.25521 19.2852 8.84896 19.0995 8.46354 18.8635C8.07812 18.6274 7.71875 18.3463 7.38542 18.02L4.39583 15.0836H0.666667C0.486111 15.0836 0.329861 15.0177 0.197917 14.8858C0.0659722 14.7539 0 14.5977 0 14.4172V7.41988C0 7.2394 0.0659722 7.0832 0.197917 6.95131C0.329861 6.81942 0.486111 6.75347 0.666667 6.75347H5.05208C5.14931 6.65628 5.3125 6.48968 5.54167 6.25366C5.77083 6.01764 5.93576 5.85103 6.03646 5.75385C6.13715 5.65666 6.28993 5.51783 6.49479 5.33734C6.69965 5.15685 6.875 5.02669 7.02083 4.94686C7.16667 4.86703 7.34375 4.77852 7.55208 4.68134C7.76042 4.58415 7.97569 4.51647 8.19792 4.47829C8.42014 4.44011 8.65625 4.42102 8.90625 4.42102H10.125C10.8125 4.42102 11.441 4.61539 12.0104 5.00413C12.5799 4.61539 13.2083 4.42102 13.8958 4.42102H15.6354C15.8785 4.42102 16.1111 4.44185 16.3333 4.4835C16.5556 4.52515 16.7517 4.57548 16.9219 4.63448C17.092 4.69349 17.2708 4.78547 17.4583 4.91042C17.6458 5.03537 17.8003 5.14297 17.9219 5.23321C18.0434 5.32346 18.1927 5.46056 18.3698 5.64451C18.5469 5.82847 18.6823 5.97425 18.776 6.08185C18.8698 6.18945 19.0122 6.35605 19.2031 6.58166C19.3941 6.80727 19.5382 6.97561 19.6354 7.08668H23.3333C23.5139 7.08668 23.6701 7.15262 23.8021 7.28452C23.934 7.41641 24 7.5726 24 7.75309Z" fill="url(#paint0_linear_34_206)"/>
</g>
<defs>
<linearGradient id="paint0_linear_34_206" x1="0" y1="4.42102" x2="25.5567" y2="7.79808" gradientUnits="userSpaceOnUse">
<stop stop-color="#48B760"/>
<stop offset="1" stop-color="#6BB748"/>
</linearGradient>
<clipPath id="clip0_34_206">
<rect width="24" height="24" fill="white"/>
</clipPath>
</defs>
</svg>
