<svg width="26" height="26" viewBox="0 0 26 26" fill="none" xmlns="http://www.w3.org/2000/svg">
<path d="M13 2.4375C7.1759 2.4375 2.4375 7.1759 2.4375 13C2.4375 18.8241 7.1759 23.5625 13 23.5625C18.8241 23.5625 23.5625 18.8241 23.5625 13C23.5625 7.1759 18.8241 2.4375 13 2.4375ZM16.8243 15.6757C16.903 15.7504 16.9658 15.84 17.0093 15.9394C17.0527 16.0388 17.0758 16.1459 17.0771 16.2543C17.0785 16.3627 17.0582 16.4704 17.0173 16.5708C16.9765 16.6713 16.9159 16.7625 16.8392 16.8392C16.7625 16.9159 16.6713 16.9765 16.5708 17.0173C16.4704 17.0582 16.3627 17.0785 16.2543 17.0771C16.1459 17.0758 16.0388 17.0527 15.9394 17.0093C15.84 16.9658 15.7504 16.903 15.6757 16.8243L13 14.1492L10.3243 16.8243C10.1707 16.9703 9.96618 17.0504 9.75431 17.0477C9.54244 17.045 9.34001 16.9596 9.19019 16.8098C9.04036 16.66 8.95499 16.4576 8.95228 16.2457C8.94956 16.0338 9.02972 15.8293 9.17566 15.6757L11.8508 13L9.17566 10.3243C9.02972 10.1707 8.94956 9.96618 8.95228 9.75431C8.95499 9.54244 9.04036 9.34001 9.19019 9.19019C9.34001 9.04036 9.54244 8.95499 9.75431 8.95228C9.96618 8.94956 10.1707 9.02972 10.3243 9.17566L13 11.8508L15.6757 9.17566C15.8293 9.02972 16.0338 8.94956 16.2457 8.95228C16.4576 8.95499 16.66 9.04036 16.8098 9.19019C16.9596 9.34001 17.045 9.54244 17.0477 9.75431C17.0504 9.96618 16.9703 10.1707 16.8243 10.3243L14.1492 13L16.8243 15.6757Z" fill="#BDBDBD"/>
</svg>
