<svg width="24" height="24" viewBox="0 0 24 24" fill="none" xmlns="http://www.w3.org/2000/svg">
<g clip-path="url(#clip0_34_234)">
<path fill-rule="evenodd" clip-rule="evenodd" d="M13.6818 0.339383C14.2142 0.56354 14.6965 0.891859 15.1003 1.30505V1.30655L16.0333 2.26055L17.3683 2.24555C17.9461 2.23871 18.5196 2.34749 19.0548 2.56548C19.59 2.78348 20.0762 3.10629 20.4849 3.51494C20.8935 3.92359 21.2163 4.40982 21.4343 4.94504C21.6523 5.48026 21.7611 6.05367 21.7543 6.63155L21.7378 7.96655L22.6933 8.89955C23.1065 9.3033 23.4348 9.78557 23.6589 10.318C23.8831 10.8505 23.9986 11.4223 23.9986 12C23.9986 12.5778 23.8831 13.1496 23.6589 13.6821C23.4348 14.2145 23.1065 14.6968 22.6933 15.1005L21.7393 16.0336L21.7543 17.3685C21.7611 17.9464 21.6523 18.5198 21.4343 19.0551C21.2163 19.5903 20.8935 20.0765 20.4849 20.4852C20.0762 20.8938 19.59 21.2166 19.0548 21.4346C18.5196 21.6526 17.9461 21.7614 17.3683 21.7545L16.0333 21.738L15.1003 22.6935C14.6965 23.1067 14.2142 23.4351 13.6818 23.6592C13.1494 23.8834 12.5775 23.9988 11.9998 23.9988C11.4221 23.9988 10.8502 23.8834 10.3177 23.6592C9.7853 23.4351 9.30302 23.1067 8.89927 22.6935L7.96627 21.7395L6.63127 21.7545C6.05339 21.7614 5.47999 21.6526 4.94476 21.4346C4.40954 21.2166 3.92331 20.8938 3.51466 20.4852C3.10601 20.0765 2.7832 19.5903 2.5652 19.0551C2.34721 18.5198 2.23843 17.9464 2.24527 17.3685L2.26177 16.0336L1.30627 15.1005C0.89308 14.6968 0.56476 14.2145 0.340604 13.6821C0.116448 13.1496 0.000976562 12.5778 0.000976562 12C0.000976562 11.4223 0.116448 10.8505 0.340604 10.318C0.56476 9.78557 0.89308 9.3033 1.30627 8.89955L2.26027 7.96655L2.24527 6.63155C2.23843 6.05367 2.34721 5.48026 2.5652 4.94504C2.7832 4.40982 3.10601 3.92359 3.51466 3.51494C3.92331 3.10629 4.40954 2.78348 4.94476 2.56548C5.47999 2.34749 6.05339 2.23871 6.63127 2.24555L7.96627 2.26205L8.89927 1.30505C9.30302 0.891859 9.7853 0.56354 10.3177 0.339383C10.8502 0.115227 11.4221 -0.000244141 11.9998 -0.000244141C12.5775 -0.000244141 13.1494 0.115227 13.6818 0.339383ZM16.7603 10.2815C16.9139 10.1407 17.0002 9.94975 17.0002 9.75066C17.0002 9.55157 16.9139 9.36064 16.7603 9.21986C16.6067 9.07909 16.3984 9 16.1812 9C15.9639 9 15.7556 9.07909 15.602 9.21986L11.2732 13.1889L9.39835 11.469C9.3223 11.3993 9.23201 11.344 9.13264 11.3063C9.03327 11.2686 8.92677 11.2491 8.81921 11.2491C8.71165 11.2491 8.60515 11.2686 8.50578 11.3063C8.40641 11.344 8.31612 11.3993 8.24007 11.469C8.16402 11.5387 8.10369 11.6215 8.06253 11.7125C8.02137 11.8036 8.00018 11.9012 8.00018 11.9998C8.00018 12.0984 8.02137 12.196 8.06253 12.2871C8.10369 12.3781 8.16402 12.4609 8.24007 12.5306L10.6941 14.7797C10.77 14.8496 10.8603 14.905 10.9597 14.9427C11.0591 14.9805 11.1656 15 11.2732 15C11.3808 15 11.4873 14.9805 11.5867 14.9427C11.6861 14.905 11.7763 14.8496 11.8523 14.7797L16.7603 10.2815Z" fill="url(#paint0_linear_34_234)"/>
</g>
<defs>
<linearGradient id="paint0_linear_34_234" x1="0.000976562" y1="-0.000244141" x2="25.8215" y2="2.15452" gradientUnits="userSpaceOnUse">
<stop stop-color="#48B760"/>
<stop offset="1" stop-color="#6BB748"/>
</linearGradient>
<clipPath id="clip0_34_234">
<rect width="24" height="24" fill="white"/>
</clipPath>
</defs>
</svg>
