<svg width="149" height="149" viewBox="0 0 149 149" fill="none" xmlns="http://www.w3.org/2000/svg">
<path d="M149 74.5C149 89.2347 144.631 103.639 136.444 115.89C128.258 128.141 116.623 137.69 103.01 143.329C89.3968 148.968 74.4174 150.443 59.9658 147.568C45.5142 144.694 32.2396 137.598 21.8205 127.179C11.4015 116.76 4.3061 103.486 1.4315 89.0342C-1.4431 74.5826 0.0322463 59.6032 5.67098 45.9901C11.3097 32.377 20.8586 20.7417 33.11 12.5555C45.3615 4.36935 59.7653 -1.7571e-07 74.5 0V74.5H149Z" fill="#A1B748"/>
<path d="M131.12 74.4999C131.12 61.4006 126.578 48.7065 118.268 38.5805C109.958 28.4546 98.3937 21.5234 85.5461 18.9678C72.6984 16.4123 59.3621 18.3905 47.8095 24.5655C36.257 30.7405 27.2029 40.7301 22.1899 52.8324C17.177 64.9346 16.5155 78.4005 20.318 90.9358C24.1206 103.471 32.1519 114.3 43.0436 121.578C53.9353 128.855 67.0135 132.131 80.0498 130.847C93.086 129.563 105.274 123.799 114.536 114.536L74.5 74.4999H131.12Z" fill="#4F4F4F"/>
<path d="M149 74.5C149 89.2347 144.631 103.639 136.444 115.89C128.258 128.141 116.623 137.69 103.01 143.329C89.3968 148.968 74.4174 150.443 59.9658 147.568C45.5142 144.694 32.2396 137.598 21.8205 127.179C11.4015 116.76 4.3061 103.486 1.4315 89.0342C-1.4431 74.5826 0.0322463 59.6032 5.67098 45.9901C11.3097 32.377 20.8586 20.7417 33.11 12.5555C45.3615 4.36935 59.7653 -1.7571e-07 74.5 0V74.5H149Z" fill="url(#paint0_linear_109_135)"/>
<defs>
<linearGradient id="paint0_linear_109_135" x1="74.5" y1="0" x2="74.5" y2="149" gradientUnits="userSpaceOnUse">
<stop stop-color="#48B760"/>
<stop offset="1" stop-color="#6BB748" stop-opacity="0.63"/>
</linearGradient>
</defs>
</svg>
